<svg width="144" height="191" viewBox="0 0 144 191" fill="none" xmlns="http://www.w3.org/2000/svg">
<g clip-path="url(#clip0_75205_8379)" filter="url(#filter0_d_75205_8379)">
<rect width="124" height="171" transform="translate(10 10)" fill="#DDF8FA"/>
<path opacity="0.2" d="M27.5547 69.1174C26.2561 87.855 13.7018 89.1397 6.68343 89.4105L-7.76021 3.381L76.3696 6.99222C77.0374 17.4889 65.6029 28.9808 56.3105 31.7566C36.115 37.7894 29.2054 45.2992 27.5547 69.1174Z" fill="#1AEBC5"/>
<path opacity="0.1" d="M18.9569 52.0231C18.9393 69.532 7.29151 71.5387 0.751304 72.2446L-18.2338 -6.82332L60.6014 -8.90714C61.8952 0.810968 51.945 12.2374 43.44 15.4198C24.9558 22.3363 18.9792 29.7669 18.9569 52.0231Z" fill="#8F5CFB"/>
<path d="M30.1406 145.156C32.7812 145.156 34.6641 143.758 34.6562 141.797C34.6641 140.391 33.75 139.398 32.0156 139.188V139.109C33.3203 138.914 34.2422 138.031 34.2344 136.766C34.2422 134.922 32.5859 133.531 30.1719 133.531C27.7344 133.531 25.9531 134.93 25.9219 136.938H28.4844C28.5 136.148 29.2266 135.617 30.1562 135.609C31.0625 135.617 31.6719 136.156 31.6719 136.922C31.6719 137.734 30.9531 138.289 29.9219 138.281H28.8281V140.188H29.9219C31.1094 140.195 31.875 140.773 31.8594 141.594C31.875 142.414 31.1562 142.977 30.1562 142.984C29.1484 142.977 28.4141 142.461 28.3906 141.703H25.7031C25.7266 143.734 27.5625 145.156 30.1406 145.156ZM40.8125 145.156C43.75 145.156 45.5547 143.062 45.5469 139.344C45.5547 135.648 43.75 133.531 40.8125 133.531C37.875 133.531 36.0781 135.633 36.0781 139.344C36.0781 143.055 37.875 145.156 40.8125 145.156ZM38.8125 139.344C38.8203 136.875 39.6172 135.695 40.8125 135.688C42.0156 135.695 42.8125 136.875 42.8125 139.344C42.8203 141.852 42.0156 142.984 40.8125 142.984C39.6094 142.984 38.8047 141.852 38.8125 139.344ZM59.7344 139.438H46.625V141.188H52.2656V143.344H54.4844V141.188H59.7344V139.438ZM48.1094 146.266H58.2969V144.469H50.3438V142.281H48.1094V146.266ZM48.2969 138.562H58.0469V132.609H55.8281V134H50.5V132.609H48.2969V138.562ZM50.5 136.797V135.656H55.8281V136.797H50.5ZM77.1562 143.047H74.3594V139.594C75.3984 138.922 76.0234 137.922 76.0312 136.688C76.0234 134.352 73.6953 132.797 70.5781 132.797C67.4531 132.797 65.1484 134.352 65.1562 136.688C65.1484 137.945 65.7969 138.961 66.875 139.641V143.047H64.0469V144.875H77.1562V143.047ZM67.3906 136.688C67.3828 135.312 68.625 134.555 70.5781 134.562C72.5156 134.555 73.7969 135.312 73.7969 136.688C73.7969 138.047 72.5156 138.844 70.5781 138.844C68.625 138.844 67.3828 138.047 67.3906 136.688ZM69.0938 143.047V140.453C69.5625 140.531 70.0547 140.578 70.5781 140.578C71.1016 140.578 71.6094 140.531 72.0781 140.453V143.047H69.0938ZM91.0781 133.953H89.2969V132.156H87.0469V140.594H89.2969V138.906H91.0781V137.047H89.2969V135.766H91.0781V133.953ZM77.9219 136.453C77.9062 138.531 79.6406 140 81.9062 140C84.1328 140 85.8594 138.531 85.8594 136.453C85.8594 134.406 84.1328 132.922 81.9062 132.922C79.6406 132.922 77.9062 134.406 77.9219 136.453ZM79.5625 142.953H87.0469V146.5H89.2969V141.141H79.5625V142.953ZM80.125 136.453C80.1172 135.398 80.8828 134.844 81.9062 134.844C82.8906 134.844 83.6641 135.398 83.6719 136.453C83.6641 137.523 82.8906 138.094 81.9062 138.094C80.8828 138.094 80.1172 137.523 80.125 136.453ZM103.125 132.156H100.875V140.391H103.125V137.25H104.984V135.422H103.125V132.156ZM91.5781 138.984L92.4688 140.797C96.7656 139.625 99.1094 136.945 99.1094 133.062H92.2656V134.859H96.6328C96.3125 136.68 94.625 138.195 91.5781 138.984ZM93.4844 143.531C93.4766 145.375 95.4688 146.523 98.3906 146.516C101.328 146.523 103.273 145.375 103.281 143.531C103.273 141.727 101.328 140.562 98.3906 140.562C95.4688 140.562 93.4766 141.727 93.4844 143.531ZM95.7188 143.531C95.7109 142.727 96.6953 142.305 98.3906 142.297C100.078 142.305 101.055 142.727 101.062 143.531C101.055 144.352 100.078 144.781 98.3906 144.781C96.6953 144.781 95.7109 144.352 95.7188 143.531ZM113.781 133.25H105.922V135.078H108.68C108.523 136.523 107.57 137.938 105.375 138.578L106.5 140.312C108.148 139.836 109.25 138.852 109.875 137.594C110.508 138.727 111.578 139.609 113.156 140.031L114.219 138.297C112.102 137.703 111.18 136.398 111.023 135.078H113.781V133.25ZM105.375 142.047L105.656 143.859C108.039 143.844 111.211 143.867 114.203 143.281L114.047 141.672C113.07 141.805 112.023 141.891 110.984 141.945V139.688H108.734V142.023C107.531 142.047 106.383 142.047 105.375 142.047ZM114.766 146.5H117.016V139.594H118.844V137.719H117.016V132.156H114.766V146.5ZM57.8281 162.062H52.3594V159.547H56.4219V152.047H54.1719V154.156H48.3125V152.047H46.0625V159.547H50.1406V162.062H44.7188V163.891H57.8281V162.062ZM48.3125 157.766V155.922H54.1719V157.766H48.3125ZM70.6875 151.156H68.4531V156.219H66.2969V158.047H68.4531V165.531H70.6875V151.156ZM59 154.125H63.3125V156.031H59.0469V162.234H60.25C62.5781 162.234 64.5547 162.164 66.6719 161.812L66.5 160C64.7344 160.297 63.1094 160.367 61.2812 160.375V157.812H65.5156V152.328H59V154.125ZM83.75 151.156H81.5V165.453H83.75V158.391H85.6719V156.547H83.75V151.156ZM72.1406 161.344L73.4062 163.062C78.2734 160.672 79.875 156.961 79.875 152.594H73V154.438H77.5859C77.1953 157.555 75.4297 159.688 72.1406 161.344ZM98.3125 151.156H96.0312V165.5H98.3125V151.156ZM86.2031 161.328L87.375 163.109C92.5938 160.664 93.9922 157.062 94 152.641H87.0156V154.391H91.7031C91.3828 157.484 89.8516 159.609 86.2031 161.328Z" fill="#063F94"/>
<rect x="29" y="94" width="87" height="22" rx="2" fill="#3686FF"/>
<path d="M68.0718 73.24C68.0718 65.74 62.4318 60.76 56.9118 60.16L65.3118 51.82C69.3918 47.74 66.9318 40.18 60.4518 40.18H41.7918C38.3118 40.18 36.8718 42.94 36.8718 45.22C36.8718 47.56 38.2518 50.2 41.7918 50.2H53.6118L44.3718 58.48C42.3318 60.34 41.8518 62.14 42.3918 64.3C42.8118 65.98 44.4918 67.48 46.2318 67.48H49.1118C53.0718 67.48 56.3118 69.4 56.3118 72.88C56.3118 76.12 53.9118 78.46 50.9118 78.46C49.1118 78.46 47.6718 78.34 46.2918 77.5C45.6318 77.08 44.7318 76.18 43.5918 75.88C41.7918 75.4 39.3918 75.4 37.7118 76.9C35.6718 78.7 35.4318 81.94 37.0518 84.16C39.8718 88.06 45.8118 89.38 51.1518 89.38C60.3318 89.38 68.0718 83.44 68.0718 73.24ZM90.3848 89.5C99.8648 89.5 107.185 84.04 107.185 73.42V55.84C107.185 45.28 99.8648 39.76 90.3848 39.76C80.9048 39.76 73.5848 45.28 73.5848 55.84V73.42C73.5848 84.04 80.9048 89.5 90.3848 89.5ZM90.3848 79.3C88.2848 79.3 85.6448 78.1 85.6448 74.26V55C85.6448 51.28 88.2848 49.96 90.3848 49.96C92.4848 49.96 95.1248 51.28 95.1248 55V74.26C95.1248 78.1 92.4848 79.3 90.3848 79.3Z" fill="#3687FF"/>
<path d="M41.2027 110.52C41.8107 110.52 42.7547 110.28 42.9147 109.736L44.5467 103.848L45.2667 111.096H48.2907L46.9467 99.784C46.8507 98.808 45.9867 98.248 45.2667 98.184C44.4987 98.12 43.4267 98.44 43.1387 99.496L41.2027 106.824L39.2667 99.496C38.9787 98.44 37.9067 98.12 37.1387 98.184C36.4187 98.248 35.5547 98.808 35.4587 99.784L34.1147 111.096H37.1387L37.8747 103.896L39.4907 109.736C39.6507 110.28 40.5947 110.52 41.2027 110.52ZM49.6676 111.096H52.9956V99.752C52.9956 98.648 52.2276 98.152 51.3316 98.152C50.4356 98.152 49.6676 98.648 49.6676 99.752V111.096ZM58.3327 99.112C57.9327 98.424 57.0367 98.104 56.2687 98.184C55.5327 98.264 54.6687 98.792 54.6687 99.784V111.096H57.5807V103.448L61.4847 110.36C61.8847 111.048 62.8127 111.352 63.5807 111.288C64.3007 111.224 65.1487 110.728 65.1487 109.752V99.672C65.1487 98.696 64.4607 98.152 63.6927 98.152C62.9247 98.152 62.2367 98.696 62.2367 99.672V106.056L58.3327 99.112ZM73.8158 106.792C73.8158 107.992 72.8078 108.584 71.9598 108.584C71.1118 108.584 70.1038 107.992 70.1038 106.792V99.736C70.1038 98.648 69.3518 98.152 68.4558 98.152C67.5758 98.152 66.8078 98.648 66.8078 99.736V106.664C66.8078 110.232 69.6558 111.368 71.9598 111.368C74.2638 111.368 77.1118 110.232 77.1118 106.664V99.736C77.1118 98.648 76.3598 98.152 75.4638 98.152C74.5838 98.152 73.8158 98.648 73.8158 99.736V106.792ZM84.9861 111.096V101.048H87.4341C88.3621 101.048 88.7301 100.28 88.7301 99.624C88.7301 98.968 88.3781 98.248 87.4341 98.248H79.2101C78.2661 98.248 77.9141 98.968 77.9141 99.624C77.9141 100.28 78.2821 101.048 79.2101 101.048H81.6581V111.096H84.9861ZM92.8706 101.48C92.8706 101.096 92.9666 101.016 93.3346 101.016H97.3826C98.3266 101.016 98.6786 100.296 98.6786 99.64C98.6786 98.984 98.3106 98.216 97.3826 98.216H92.0866C90.1666 98.216 89.5906 98.904 89.5906 100.744V108.568C89.5906 110.408 90.1666 111.096 92.0866 111.096H97.5426C98.4706 111.096 98.8386 110.328 98.8386 109.672C98.8386 109.016 98.4866 108.296 97.5426 108.296H93.3346C92.9666 108.296 92.8706 108.216 92.8706 107.832V105.96H97.2386C98.1826 105.96 98.5346 105.24 98.5346 104.6C98.5346 103.96 98.1666 103.192 97.2386 103.192H92.8706V101.48ZM103.32 101.96C103.336 101.304 103.8 101 104.568 101C105.528 101 106.088 101.224 106.472 101.48C106.616 101.592 106.968 101.688 107.208 101.688C107.816 101.688 108.376 101.432 108.584 100.776C108.824 100.008 108.312 99.208 107.576 98.808C106.984 98.488 106.2 98.168 104.536 98.168C102.344 98.168 100.776 99.16 100.216 100.872C99.6723 102.552 100.2 104.744 102.616 105.752C102.808 105.832 103.128 105.96 103.384 106.04C104.712 106.456 105.768 106.92 105.752 107.528C105.736 108.232 105.208 108.536 104.328 108.536C103.24 108.536 102.744 108.344 102.376 108.12C102.072 107.96 101.8 107.704 101.24 107.72C100.808 107.736 100.344 107.944 100.104 108.296C99.6243 109.032 99.9123 109.896 100.52 110.392C101.384 111.08 102.808 111.368 104.232 111.368C107.144 111.368 108.936 110.04 109.08 107.768C109.208 105.704 107.976 104.312 106.104 103.64L105.32 103.368C104.04 102.936 103.304 102.552 103.32 101.96Z" fill="white"/>
<path d="M42.5 42.5082C42.5 41.5082 39 41.8082 39 45.0082C39 48.2082 42.5 43.5082 42.5 42.5082Z" fill="#FAF9DD"/>
<path d="M83.5 44C84 42.5 78.5 44.5 78 47.5C77.5891 49.966 83 45.5 83.5 44Z" fill="#FAF9DD"/>
</g>
<defs>
<filter id="filter0_d_75205_8379" x="0" y="0" width="144" height="191" filterUnits="userSpaceOnUse" color-interpolation-filters="sRGB">
<feFlood flood-opacity="0" result="BackgroundImageFix"/>
<feColorMatrix in="SourceAlpha" type="matrix" values="0 0 0 0 0 0 0 0 0 0 0 0 0 0 0 0 0 0 127 0" result="hardAlpha"/>
<feOffset/>
<feGaussianBlur stdDeviation="5"/>
<feComposite in2="hardAlpha" operator="out"/>
<feColorMatrix type="matrix" values="0 0 0 0 0 0 0 0 0 0 0 0 0 0 0 0 0 0 0.05 0"/>
<feBlend mode="normal" in2="BackgroundImageFix" result="effect1_dropShadow_75205_8379"/>
<feBlend mode="normal" in="SourceGraphic" in2="effect1_dropShadow_75205_8379" result="shape"/>
</filter>
<clipPath id="clip0_75205_8379">
<rect width="124" height="171" fill="white" transform="translate(10 10)"/>
</clipPath>
</defs>
</svg>
