<svg width="24" height="24" viewBox="0 0 24 24" fill="none" xmlns="http://www.w3.org/2000/svg">
<path fill-rule="evenodd" clip-rule="evenodd" d="M21 3V21H3V7H5V16.5858L9 12.5858L11 14.585L15 10.5858L19 14.5858V5H5H3V3H21ZM19 17.4143L15 13.415L11 17.4142L9 15.415L5.41434 19H19V17.4143ZM12 9C12 7.34315 10.6569 6 9 6C7.34315 6 6 7.34315 6 9C6 10.6569 7.34315 12 9 12C10.6569 12 12 10.6569 12 9ZM8 9C8 8.44772 8.44772 8 9 8C9.55228 8 10 8.44772 10 9C10 9.55228 9.55228 10 9 10C8.44772 10 8 9.55228 8 9Z" fill="#2E6FF2"/>
</svg>
