<svg width="117" height="34" viewBox="0 0 117 34" fill="none" xmlns="http://www.w3.org/2000/svg">
<path d="M29.3972 7.74204C29.8765 7.74204 30.3362 7.94058 30.6751 8.29398C31.014 8.64737 31.2044 9.12668 31.2044 9.62646V19.9372C31.2062 21.5908 30.7196 23.2049 29.8106 24.5599C28.9017 25.9149 27.6145 26.9451 26.1242 27.5103C24.6339 28.0756 23.0129 28.1485 21.4815 27.7191C19.95 27.2897 18.5826 26.3789 17.5652 25.1105C16.5435 26.3749 15.1743 27.282 13.6425 27.7093C12.1108 28.1366 10.4901 28.0636 8.99941 27.5001C7.50868 26.9366 6.21964 25.9098 5.30628 24.5582C4.39293 23.2066 3.89924 21.5954 3.89185 19.942V9.62646C3.89245 9.12646 4.08336 8.64716 4.42263 8.29383C4.7619 7.94051 5.22179 7.74204 5.70129 7.74204V7.74204C6.18058 7.74204 6.64023 7.94058 6.97914 8.29398C7.31805 8.64737 7.50845 9.12668 7.50845 9.62646V19.8826C7.4921 20.8839 7.81488 21.8591 8.42001 22.6367C8.95511 23.3239 9.68047 23.8221 10.4971 24.0635C11.3138 24.3049 12.182 24.2776 12.9833 23.9855C13.7846 23.6934 14.4799 23.1506 14.9745 22.4312C15.469 21.7118 15.7387 20.8508 15.7466 19.9658V9.62646C15.7466 9.12668 15.937 8.64737 16.2759 8.29398C16.6149 7.94058 17.0745 7.74204 17.5538 7.74204V7.74204C17.7913 7.74172 18.0266 7.79024 18.2461 7.8848C18.4656 7.97936 18.6651 8.11812 18.8331 8.29314C19.0012 8.46815 19.1345 8.67598 19.2255 8.90476C19.3164 9.13355 19.3632 9.3788 19.3632 9.62646V19.9658C19.355 20.5295 19.4577 21.0891 19.6651 21.6098C19.8724 22.1305 20.18 22.6013 20.5688 22.9932C20.9794 23.4109 21.4688 23.7351 22.006 23.9451C22.5432 24.1551 23.1164 24.2464 23.6892 24.2131C24.262 24.1798 24.8219 24.0227 25.3334 23.7517C25.8448 23.4808 26.2967 23.1019 26.6603 22.6391C27.2659 21.8618 27.5888 20.8863 27.5718 19.885V9.62646C27.5718 9.12668 27.7622 8.64737 28.1011 8.29398C28.44 7.94058 28.8997 7.74204 29.379 7.74204H29.3972Z" fill="#2E2525"/>
<path d="M58.8838 26.106V18.0265C58.8592 15.4187 59.7872 12.8988 61.4794 10.9784C63.4287 8.81915 65.7949 7.73872 68.5782 7.73714C71.1566 7.73777 73.6292 8.80593 75.4527 10.7068C77.2761 12.6078 78.301 15.1858 78.3022 17.8745V26.1012C78.3016 26.6012 78.1107 27.0805 77.7715 27.4339C77.4322 27.7872 76.9723 27.9856 76.4928 27.9856V27.9856C76.0135 27.9856 75.5538 27.7871 75.2149 27.4337C74.876 27.0803 74.6856 26.601 74.6856 26.1012V17.8792C74.6956 17.0499 74.5447 16.2271 74.242 15.4602C73.9393 14.6933 73.491 13.9982 72.9241 13.4165C72.3558 12.8162 71.6793 12.3392 70.9334 12.0129C70.1875 11.6867 69.3871 11.5176 68.5782 11.5155C67.7777 11.5025 66.9832 11.6608 66.2436 11.9804C65.504 12.3 64.835 12.7742 64.2779 13.3737C63.7035 13.9614 63.2495 14.6646 62.9436 15.4407C62.6376 16.2168 62.4861 17.0497 62.4981 17.8887V26.1155C62.4981 26.6153 62.3077 27.0946 61.9688 27.448C61.6299 27.8014 61.1702 27.9999 60.6909 27.9999C60.4528 27.9999 60.2171 27.9508 59.9973 27.8555C59.7774 27.7603 59.5778 27.6206 59.4099 27.4446C59.2419 27.2686 59.109 27.0598 59.0187 26.83C58.9284 26.6003 58.8826 26.3542 58.8838 26.106V26.106Z" fill="#2E2525"/>
<path d="M85.3145 7.74203C85.7938 7.74203 86.2534 7.94058 86.5924 8.29398C86.9313 8.64737 87.1217 9.12668 87.1217 9.62646V26.1061C87.1217 26.6059 86.9313 27.0852 86.5924 27.4386C86.2534 27.792 85.7938 27.9905 85.3145 27.9905C84.8352 27.9905 84.3755 27.792 84.0366 27.4386C83.6977 27.0852 83.5073 26.6059 83.5073 26.1061V9.62646C83.5073 9.12668 83.6977 8.64737 84.0366 8.29398C84.3755 7.94058 84.8352 7.74203 85.3145 7.74203V7.74203Z" fill="#2E2525"/>
<path d="M110.574 7.74198C110.877 7.74172 111.175 7.8212 111.44 7.97305C111.706 8.12489 111.93 8.34418 112.093 8.61058C112.255 8.87697 112.351 9.18185 112.37 9.49693C112.389 9.81202 112.332 10.1271 112.204 10.413L105.182 26.0966C104.635 27.3513 103.695 27.9794 102.361 27.981C101.761 28.0105 101.166 27.8463 100.658 27.5108C100.151 27.1753 99.7545 26.6848 99.5238 26.1061L92.5093 10.4225C92.3837 10.1342 92.3291 9.81783 92.3505 9.50199C92.3718 9.18616 92.4685 8.88091 92.6318 8.61393C92.795 8.34694 93.0196 8.12669 93.2851 7.97318C93.5507 7.81966 93.8488 7.73775 94.1524 7.73486C94.4968 7.73652 94.8337 7.83984 95.1241 8.03287C95.4144 8.22591 95.6464 8.50074 95.7932 8.82558L101.905 22.4703C101.945 22.5642 102.011 22.6438 102.094 22.6997C102.176 22.7557 102.273 22.7854 102.371 22.7854C102.47 22.7854 102.566 22.7557 102.649 22.6997C102.732 22.6438 102.797 22.5642 102.837 22.4703L108.952 8.81608C109.097 8.49289 109.328 8.21956 109.617 8.02809C109.906 7.83661 110.241 7.7349 110.583 7.73486L110.574 7.74198Z" fill="#2E2525"/>
<path d="M54.7521 17.8675C54.752 15.549 53.9886 13.3008 52.5896 11.4987C51.1906 9.69667 49.2408 8.44998 47.0661 7.96706C44.8914 7.48413 42.6237 7.79424 40.6419 8.84555C38.6602 9.89686 37.0846 11.6257 36.1786 13.7429C35.2725 15.8602 35.0909 18.2376 35.6641 20.4777C36.2373 22.7179 37.5305 24.685 39.3277 26.0502C41.1248 27.4153 43.3169 28.0959 45.5375 27.9781C47.7581 27.8602 49.8726 26.9511 51.5275 25.4027C51.7959 25.1435 51.9834 24.8061 52.0655 24.4343C52.1476 24.0626 52.1205 23.6736 51.9877 23.3181C51.855 22.9626 51.6228 22.657 51.3212 22.4409C51.0197 22.2249 50.6627 22.1085 50.2969 22.1068C49.8381 22.1135 49.3974 22.2943 49.0572 22.6153C48.2984 23.311 47.3851 23.7983 46.4001 24.0329C45.4151 24.2675 44.3896 24.242 43.4164 23.9588C42.4432 23.6756 41.5532 23.1436 40.827 22.4111C40.1009 21.6785 39.5615 20.7686 39.2579 19.7638H52.9313C53.414 19.7688 53.879 19.574 54.2242 19.2221C54.5694 18.8702 54.7666 18.3898 54.7726 17.8865L54.7521 17.8675ZM39.2556 15.9664C39.6425 14.6795 40.4132 13.555 41.4556 12.7566C42.4979 11.9583 43.7575 11.5277 45.0509 11.5277C46.3442 11.5277 47.6038 11.9583 48.6462 12.7566C49.6885 13.555 50.4593 14.6795 50.8461 15.9664H39.2556Z" fill="#2E2525"/>
<path d="M85.3144 4.98549C86.6347 4.98549 87.7049 3.86945 87.7049 2.49274C87.7049 1.11604 86.6347 0 85.3144 0C83.9941 0 82.9238 1.11604 82.9238 2.49274C82.9238 3.86945 83.9941 4.98549 85.3144 4.98549Z" fill="#2E2525"/>
</svg>
